<mxfile type="github" version="12.1.9" host="www.draw.io" modified="2019-11-03T11:15:00.358Z" agent="Mozilla/5.0 (Windows NT 10.0; Win64; x64) AppleWebKit/537.36 (KHTML, like Gecko) Chrome/70.0.3538.102 Safari/537.36 Edge/18.18362" etag="xpVg3p1lSrYoMXCRV78Z" pages="1">
  <diagram id="rvXx9JwLdrE04M0KB4S3" name="Page-1">
    <mxGraphModel grid="1" dx="782" dy="466" gridSize="10" guides="1" tooltips="1" connect="1" arrows="1" fold="1" page="1" pageScale="1" pageWidth="2336" pageHeight="1654" math="0" shadow="0">
      <root>
        <mxCell id="0"/>
        <mxCell id="1" parent="0"/>
        <mxCell id="hYaq0uTZQcr8mzzm78UU-1" value="" parent="1" vertex="1" style="strokeWidth=2;html=1;shape=mxgraph.flowchart.terminator;whiteSpace=wrap;">
          <mxGeometry as="geometry" height="60" width="100" y="20" x="20"/>
        </mxCell>
      </root>
    </mxGraphModel>
  </diagram>
</mxfile>
